<svg width="1253" height="1992" viewBox="0 0 1253 1992" fill="none" xmlns="http://www.w3.org/2000/svg">
<rect x="6" y="865" width="223" height="254" rx="10" fill="#74FEE5" fill-opacity="0.2"/>
<path d="M89.7699 990.031C60.9963 932.833 50.5304 896.891 7.13777 980.787C6.41053 982.193 6 983.825 6 985.408V1109C6 1114.52 10.4772 1119 16 1119H219C224.523 1119 229 1114.52 229 1109V946.42C229 943.955 228.089 941.577 226.443 939.742L193.233 902.727C189.124 898.148 181.894 898.33 178.02 903.11L106.207 991.731C101.699 997.295 92.988 996.428 89.7699 990.031Z" fill="#4ECB71" fill-opacity="0.19"/>
<circle cx="94" cy="918" r="24" fill="#FFB800" fill-opacity="0.07"/>
<circle cx="94" cy="918" r="12" fill="#FFB800" fill-opacity="0.2"/>
<rect y="1447" width="223" height="254" rx="10" fill="#74FEE5" fill-opacity="0.2"/>
<path d="M83.7699 1572.03C54.9963 1514.83 44.5304 1478.89 1.13777 1562.79C0.41053 1564.19 0 1565.83 0 1567.41V1691C0 1696.52 4.47716 1701 10 1701H213C218.523 1701 223 1696.52 223 1691V1528.42C223 1525.96 222.089 1523.58 220.443 1521.74L187.233 1484.73C183.124 1480.15 175.894 1480.33 172.02 1485.11L100.207 1573.73C95.6988 1579.29 86.988 1578.43 83.7699 1572.03Z" fill="#4ECB71" fill-opacity="0.19"/>
<circle cx="88" cy="1500" r="24" fill="#FFB800" fill-opacity="0.07"/>
<circle cx="88" cy="1500" r="12" fill="#FFB800" fill-opacity="0.2"/>
<rect x="6" y="1156" width="223" height="254" rx="10" fill="#74FEE5" fill-opacity="0.2"/>
<path d="M89.7699 1281.03C60.9963 1223.83 50.5304 1187.89 7.13777 1271.79C6.41053 1273.19 6 1274.83 6 1276.41V1400C6 1405.52 10.4772 1410 16 1410H219C224.523 1410 229 1405.52 229 1400V1237.42C229 1234.96 228.089 1232.58 226.443 1230.74L193.233 1193.73C189.124 1189.15 181.894 1189.33 178.02 1194.11L106.207 1282.73C101.699 1288.29 92.988 1287.43 89.7699 1281.03Z" fill="#4ECB71" fill-opacity="0.19"/>
<circle cx="97" cy="1219" r="24" fill="#FFB800" fill-opacity="0.07"/>
<circle cx="97" cy="1219" r="12" fill="#FFB800" fill-opacity="0.2"/>
<rect y="1738" width="223" height="254" rx="10" fill="#74FEE5" fill-opacity="0.2"/>
<path d="M83.7699 1863.03C54.9963 1805.83 44.5304 1769.89 1.13777 1853.79C0.41053 1855.19 0 1856.83 0 1858.41V1982C0 1987.52 4.47716 1992 10 1992H213C218.523 1992 223 1987.52 223 1982V1819.42C223 1816.96 222.089 1814.58 220.443 1812.74L187.233 1775.73C183.124 1771.15 175.894 1771.33 172.02 1776.11L100.207 1864.73C95.6988 1870.29 86.988 1869.43 83.7699 1863.03Z" fill="#4ECB71" fill-opacity="0.19"/>
<circle cx="91" cy="1801" r="24" fill="#FFB800" fill-opacity="0.07"/>
<circle cx="91" cy="1801" r="12" fill="#FFB800" fill-opacity="0.2"/>
<rect x="262" y="865" width="223" height="254" rx="10" fill="#74FEE5" fill-opacity="0.2"/>
<path d="M345.77 990.031C316.996 932.833 306.53 896.891 263.138 980.787C262.411 982.193 262 983.825 262 985.408V1109C262 1114.52 266.477 1119 272 1119H475C480.523 1119 485 1114.52 485 1109V946.42C485 943.955 484.089 941.577 482.443 939.742L449.233 902.727C445.124 898.148 437.894 898.33 434.02 903.11L362.207 991.731C357.699 997.295 348.988 996.428 345.77 990.031Z" fill="#4ECB71" fill-opacity="0.19"/>
<circle cx="351" cy="918" r="24" fill="#FFB800" fill-opacity="0.07"/>
<circle cx="351" cy="918" r="12" fill="#FFB800" fill-opacity="0.2"/>
<rect x="256" y="1447" width="223" height="254" rx="10" fill="#74FEE5" fill-opacity="0.2"/>
<path d="M339.77 1572.03C310.996 1514.83 300.53 1478.89 257.138 1562.79C256.411 1564.19 256 1565.83 256 1567.41V1691C256 1696.52 260.477 1701 266 1701H469C474.523 1701 479 1696.52 479 1691V1528.42C479 1525.96 478.089 1523.58 476.443 1521.74L443.233 1484.73C439.124 1480.15 431.894 1480.33 428.02 1485.11L356.207 1573.73C351.699 1579.29 342.988 1578.43 339.77 1572.03Z" fill="#4ECB71" fill-opacity="0.19"/>
<circle cx="345" cy="1500" r="24" fill="#FFB800" fill-opacity="0.07"/>
<circle cx="345" cy="1500" r="12" fill="#FFB800" fill-opacity="0.2"/>
<rect x="262" y="1156" width="223" height="254" rx="10" fill="#74FEE5" fill-opacity="0.2"/>
<path d="M345.77 1281.03C316.996 1223.83 306.53 1187.89 263.138 1271.79C262.411 1273.19 262 1274.83 262 1276.41V1400C262 1405.52 266.477 1410 272 1410H475C480.523 1410 485 1405.52 485 1400V1237.42C485 1234.96 484.089 1232.58 482.443 1230.74L449.233 1193.73C445.124 1189.15 437.894 1189.33 434.02 1194.11L362.207 1282.73C357.699 1288.29 348.988 1287.43 345.77 1281.03Z" fill="#4ECB71" fill-opacity="0.19"/>
<circle cx="354" cy="1219" r="24" fill="#FFB800" fill-opacity="0.07"/>
<circle cx="354" cy="1219" r="12" fill="#FFB800" fill-opacity="0.2"/>
<rect x="256" y="1738" width="223" height="254" rx="10" fill="#74FEE5" fill-opacity="0.2"/>
<path d="M339.77 1863.03C310.996 1805.83 300.53 1769.89 257.138 1853.79C256.411 1855.19 256 1856.83 256 1858.41V1982C256 1987.52 260.477 1992 266 1992H469C474.523 1992 479 1987.52 479 1982V1819.42C479 1816.96 478.089 1814.58 476.443 1812.74L443.233 1775.73C439.124 1771.15 431.894 1771.33 428.02 1776.11L356.207 1864.73C351.699 1870.29 342.988 1869.43 339.77 1863.03Z" fill="#4ECB71" fill-opacity="0.19"/>
<circle cx="348" cy="1801" r="24" fill="#FFB800" fill-opacity="0.07"/>
<circle cx="348" cy="1801" r="12" fill="#FFB800" fill-opacity="0.2"/>
<rect x="518" y="865" width="223" height="254" rx="10" fill="#74FEE5" fill-opacity="0.2"/>
<path d="M601.77 990.031C572.996 932.833 562.53 896.891 519.138 980.787C518.411 982.193 518 983.825 518 985.408V1109C518 1114.52 522.477 1119 528 1119H731C736.523 1119 741 1114.52 741 1109V946.42C741 943.955 740.089 941.577 738.443 939.742L705.233 902.727C701.124 898.148 693.894 898.33 690.02 903.11L618.207 991.731C613.699 997.295 604.988 996.428 601.77 990.031Z" fill="#4ECB71" fill-opacity="0.19"/>
<circle cx="608" cy="918" r="24" fill="#FFB800" fill-opacity="0.07"/>
<circle cx="608" cy="918" r="12" fill="#FFB800" fill-opacity="0.2"/>
<rect x="512" y="1447" width="223" height="254" rx="10" fill="#74FEE5" fill-opacity="0.2"/>
<path d="M595.77 1572.03C566.996 1514.83 556.53 1478.89 513.138 1562.79C512.411 1564.19 512 1565.83 512 1567.41V1691C512 1696.52 516.477 1701 522 1701H725C730.523 1701 735 1696.52 735 1691V1528.42C735 1525.96 734.089 1523.58 732.443 1521.74L699.233 1484.73C695.124 1480.15 687.894 1480.33 684.02 1485.11L612.207 1573.73C607.699 1579.29 598.988 1578.43 595.77 1572.03Z" fill="#4ECB71" fill-opacity="0.19"/>
<circle cx="602" cy="1500" r="24" fill="#FFB800" fill-opacity="0.07"/>
<circle cx="602" cy="1500" r="12" fill="#FFB800" fill-opacity="0.2"/>
<rect x="518" y="1156" width="223" height="254" rx="10" fill="#74FEE5" fill-opacity="0.2"/>
<path d="M601.77 1281.03C572.996 1223.83 562.53 1187.89 519.138 1271.79C518.411 1273.19 518 1274.83 518 1276.41V1400C518 1405.52 522.477 1410 528 1410H731C736.523 1410 741 1405.52 741 1400V1237.42C741 1234.96 740.089 1232.58 738.443 1230.74L705.233 1193.73C701.124 1189.15 693.894 1189.33 690.02 1194.11L618.207 1282.73C613.699 1288.29 604.988 1287.43 601.77 1281.03Z" fill="#4ECB71" fill-opacity="0.19"/>
<circle cx="611" cy="1219" r="24" fill="#FFB800" fill-opacity="0.07"/>
<circle cx="611" cy="1219" r="12" fill="#FFB800" fill-opacity="0.2"/>
<rect x="512" y="1738" width="223" height="254" rx="10" fill="#74FEE5" fill-opacity="0.2"/>
<path d="M595.77 1863.03C566.996 1805.83 556.53 1769.89 513.138 1853.79C512.411 1855.19 512 1856.83 512 1858.41V1982C512 1987.52 516.477 1992 522 1992H725C730.523 1992 735 1987.52 735 1982V1819.42C735 1816.96 734.089 1814.58 732.443 1812.74L699.233 1775.73C695.124 1771.15 687.894 1771.33 684.02 1776.11L612.207 1864.73C607.699 1870.29 598.988 1869.43 595.77 1863.03Z" fill="#4ECB71" fill-opacity="0.19"/>
<circle cx="605" cy="1801" r="24" fill="#FFB800" fill-opacity="0.07"/>
<circle cx="605" cy="1801" r="12" fill="#FFB800" fill-opacity="0.2"/>
<rect x="774" y="865" width="223" height="254" rx="10" fill="#74FEE5" fill-opacity="0.2"/>
<path d="M857.77 990.031C828.996 932.833 818.53 896.891 775.138 980.787C774.411 982.193 774 983.825 774 985.408V1109C774 1114.52 778.477 1119 784 1119H987C992.523 1119 997 1114.52 997 1109V946.42C997 943.955 996.089 941.577 994.443 939.742L961.233 902.727C957.124 898.148 949.894 898.33 946.02 903.11L874.207 991.731C869.699 997.295 860.988 996.428 857.77 990.031Z" fill="#4ECB71" fill-opacity="0.19"/>
<circle cx="865" cy="918" r="24" fill="#FFB800" fill-opacity="0.07"/>
<circle cx="865" cy="918" r="12" fill="#FFB800" fill-opacity="0.2"/>
<rect x="768" y="1447" width="223" height="254" rx="10" fill="#74FEE5" fill-opacity="0.2"/>
<path d="M851.77 1572.03C822.996 1514.83 812.53 1478.89 769.138 1562.79C768.411 1564.19 768 1565.83 768 1567.41V1691C768 1696.52 772.477 1701 778 1701H981C986.523 1701 991 1696.52 991 1691V1528.42C991 1525.96 990.089 1523.58 988.443 1521.74L955.233 1484.73C951.124 1480.15 943.894 1480.33 940.02 1485.11L868.207 1573.73C863.699 1579.29 854.988 1578.43 851.77 1572.03Z" fill="#4ECB71" fill-opacity="0.19"/>
<circle cx="859" cy="1500" r="24" fill="#FFB800" fill-opacity="0.07"/>
<circle cx="859" cy="1500" r="12" fill="#FFB800" fill-opacity="0.2"/>
<rect x="774" y="1156" width="223" height="254" rx="10" fill="#74FEE5" fill-opacity="0.2"/>
<path d="M857.77 1281.03C828.996 1223.83 818.53 1187.89 775.138 1271.79C774.411 1273.19 774 1274.83 774 1276.41V1400C774 1405.52 778.477 1410 784 1410H987C992.523 1410 997 1405.52 997 1400V1237.42C997 1234.96 996.089 1232.58 994.443 1230.74L961.233 1193.73C957.124 1189.15 949.894 1189.33 946.02 1194.11L874.207 1282.73C869.699 1288.29 860.988 1287.43 857.77 1281.03Z" fill="#4ECB71" fill-opacity="0.19"/>
<circle cx="868" cy="1219" r="24" fill="#FFB800" fill-opacity="0.07"/>
<circle cx="868" cy="1219" r="12" fill="#FFB800" fill-opacity="0.2"/>
<rect x="768" y="1738" width="223" height="254" rx="10" fill="#74FEE5" fill-opacity="0.2"/>
<path d="M851.77 1863.03C822.996 1805.83 812.53 1769.89 769.138 1853.79C768.411 1855.19 768 1856.83 768 1858.41V1982C768 1987.52 772.477 1992 778 1992H981C986.523 1992 991 1987.52 991 1982V1819.42C991 1816.96 990.089 1814.58 988.443 1812.74L955.233 1775.73C951.124 1771.15 943.894 1771.33 940.02 1776.11L868.207 1864.73C863.699 1870.29 854.988 1869.43 851.77 1863.03Z" fill="#4ECB71" fill-opacity="0.19"/>
<circle cx="862" cy="1801" r="24" fill="#FFB800" fill-opacity="0.07"/>
<circle cx="862" cy="1801" r="12" fill="#FFB800" fill-opacity="0.2"/>
<rect x="1030" y="865" width="223" height="254" rx="10" fill="#74FEE5" fill-opacity="0.2"/>
<path d="M1113.77 990.031C1085 932.833 1074.53 896.891 1031.14 980.787C1030.41 982.193 1030 983.825 1030 985.408V1109C1030 1114.52 1034.48 1119 1040 1119H1243C1248.52 1119 1253 1114.52 1253 1109V946.42C1253 943.955 1252.09 941.577 1250.44 939.742L1217.23 902.727C1213.12 898.148 1205.89 898.33 1202.02 903.11L1130.21 991.731C1125.7 997.295 1116.99 996.428 1113.77 990.031Z" fill="#4ECB71" fill-opacity="0.19"/>
<circle cx="1122" cy="918" r="24" fill="#FFB800" fill-opacity="0.07"/>
<circle cx="1122" cy="918" r="12" fill="#FFB800" fill-opacity="0.2"/>
<rect x="1024" y="1447" width="223" height="254" rx="10" fill="#74FEE5" fill-opacity="0.2"/>
<path d="M1107.77 1572.03C1079 1514.83 1068.53 1478.89 1025.14 1562.79C1024.41 1564.19 1024 1565.83 1024 1567.41V1691C1024 1696.52 1028.48 1701 1034 1701H1237C1242.52 1701 1247 1696.52 1247 1691V1528.42C1247 1525.96 1246.09 1523.58 1244.44 1521.74L1211.23 1484.73C1207.12 1480.15 1199.89 1480.33 1196.02 1485.11L1124.21 1573.73C1119.7 1579.29 1110.99 1578.43 1107.77 1572.03Z" fill="#4ECB71" fill-opacity="0.19"/>
<circle cx="1116" cy="1500" r="24" fill="#FFB800" fill-opacity="0.07"/>
<circle cx="1116" cy="1500" r="12" fill="#FFB800" fill-opacity="0.2"/>
<rect x="1030" y="1156" width="223" height="254" rx="10" fill="#74FEE5" fill-opacity="0.2"/>
<path d="M1113.77 1281.03C1085 1223.83 1074.53 1187.89 1031.14 1271.79C1030.41 1273.19 1030 1274.83 1030 1276.41V1400C1030 1405.52 1034.48 1410 1040 1410H1243C1248.52 1410 1253 1405.52 1253 1400V1237.42C1253 1234.96 1252.09 1232.58 1250.44 1230.74L1217.23 1193.73C1213.12 1189.15 1205.89 1189.33 1202.02 1194.11L1130.21 1282.73C1125.7 1288.29 1116.99 1287.43 1113.77 1281.03Z" fill="#4ECB71" fill-opacity="0.19"/>
<circle cx="1125" cy="1219" r="24" fill="#FFB800" fill-opacity="0.07"/>
<circle cx="1125" cy="1219" r="12" fill="#FFB800" fill-opacity="0.2"/>
<rect x="1024" y="1738" width="223" height="254" rx="10" fill="#74FEE5" fill-opacity="0.2"/>
<path d="M1107.77 1863.03C1079 1805.83 1068.53 1769.89 1025.14 1853.79C1024.41 1855.19 1024 1856.83 1024 1858.41V1982C1024 1987.52 1028.48 1992 1034 1992H1237C1242.52 1992 1247 1987.52 1247 1982V1819.42C1247 1816.96 1246.09 1814.58 1244.44 1812.74L1211.23 1775.73C1207.12 1771.15 1199.89 1771.33 1196.02 1776.11L1124.21 1864.73C1119.7 1870.29 1110.99 1869.43 1107.77 1863.03Z" fill="#4ECB71" fill-opacity="0.19"/>
<circle cx="1119" cy="1801" r="24" fill="#FFB800" fill-opacity="0.07"/>
<circle cx="1119" cy="1801" r="12" fill="#FFB800" fill-opacity="0.2"/>
<rect x="6" width="223" height="254" rx="10" fill="#74FEE5" fill-opacity="0.2"/>
<path d="M89.7699 125.031C60.9963 67.8329 50.5304 31.8908 7.13777 115.787C6.41053 117.193 6 118.825 6 120.408V244C6 249.523 10.4772 254 16 254H219C224.523 254 229 249.523 229 244V81.4204C229 78.9552 228.089 76.577 226.443 74.7421L193.233 37.7275C189.124 33.148 181.894 33.3298 178.02 38.1099L106.207 126.731C101.699 132.295 92.988 131.428 89.7699 125.031Z" fill="#4ECB71" fill-opacity="0.19"/>
<circle cx="91" cy="43" r="24" fill="#FFB800" fill-opacity="0.07"/>
<circle cx="91" cy="43" r="12" fill="#FFB800" fill-opacity="0.2"/>
<rect x="6" y="291" width="223" height="254" rx="10" fill="#74FEE5" fill-opacity="0.2"/>
<path d="M89.7699 416.031C60.9963 358.833 50.5304 322.891 7.13777 406.787C6.41053 408.193 6 409.825 6 411.408V535C6 540.523 10.4772 545 16 545H219C224.523 545 229 540.523 229 535V372.42C229 369.955 228.089 367.577 226.443 365.742L193.233 328.727C189.124 324.148 181.894 324.33 178.02 329.11L106.207 417.731C101.699 423.295 92.988 422.428 89.7699 416.031Z" fill="#4ECB71" fill-opacity="0.19"/>
<circle cx="94" cy="344" r="24" fill="#FFB800" fill-opacity="0.07"/>
<circle cx="94" cy="344" r="12" fill="#FFB800" fill-opacity="0.2"/>
<rect x="6" y="582" width="223" height="254" rx="10" fill="#74FEE5" fill-opacity="0.2"/>
<path d="M89.7699 707.031C60.9963 649.833 50.5304 613.891 7.13777 697.787C6.41053 699.193 6 700.825 6 702.408V826C6 831.523 10.4772 836 16 836H219C224.523 836 229 831.523 229 826V663.42C229 660.955 228.089 658.577 226.443 656.742L193.233 619.727C189.124 615.148 181.894 615.33 178.02 620.11L106.207 708.731C101.699 714.295 92.988 713.428 89.7699 707.031Z" fill="#4ECB71" fill-opacity="0.19"/>
<circle cx="97" cy="645" r="24" fill="#FFB800" fill-opacity="0.07"/>
<circle cx="97" cy="645" r="12" fill="#FFB800" fill-opacity="0.2"/>
<rect x="262" width="223" height="254" rx="10" fill="#74FEE5" fill-opacity="0.2"/>
<path d="M345.77 125.031C316.996 67.8329 306.53 31.8908 263.138 115.787C262.411 117.193 262 118.825 262 120.408V244C262 249.523 266.477 254 272 254H475C480.523 254 485 249.523 485 244V81.4204C485 78.9552 484.089 76.577 482.443 74.7421L449.233 37.7275C445.124 33.148 437.894 33.3298 434.02 38.1099L362.207 126.731C357.699 132.295 348.988 131.428 345.77 125.031Z" fill="#4ECB71" fill-opacity="0.19"/>
<circle cx="348" cy="43" r="24" fill="#FFB800" fill-opacity="0.07"/>
<circle cx="348" cy="43" r="12" fill="#FFB800" fill-opacity="0.2"/>
<rect x="262" y="291" width="223" height="254" rx="10" fill="#74FEE5" fill-opacity="0.2"/>
<path d="M345.77 416.031C316.996 358.833 306.53 322.891 263.138 406.787C262.411 408.193 262 409.825 262 411.408V535C262 540.523 266.477 545 272 545H475C480.523 545 485 540.523 485 535V372.42C485 369.955 484.089 367.577 482.443 365.742L449.233 328.727C445.124 324.148 437.894 324.33 434.02 329.11L362.207 417.731C357.699 423.295 348.988 422.428 345.77 416.031Z" fill="#4ECB71" fill-opacity="0.19"/>
<circle cx="351" cy="344" r="24" fill="#FFB800" fill-opacity="0.07"/>
<circle cx="351" cy="344" r="12" fill="#FFB800" fill-opacity="0.2"/>
<rect x="262" y="582" width="223" height="254" rx="10" fill="#74FEE5" fill-opacity="0.2"/>
<path d="M345.77 707.031C316.996 649.833 306.53 613.891 263.138 697.787C262.411 699.193 262 700.825 262 702.408V826C262 831.523 266.477 836 272 836H475C480.523 836 485 831.523 485 826V663.42C485 660.955 484.089 658.577 482.443 656.742L449.233 619.727C445.124 615.148 437.894 615.33 434.02 620.11L362.207 708.731C357.699 714.295 348.988 713.428 345.77 707.031Z" fill="#4ECB71" fill-opacity="0.19"/>
<circle cx="354" cy="645" r="24" fill="#FFB800" fill-opacity="0.07"/>
<circle cx="354" cy="645" r="12" fill="#FFB800" fill-opacity="0.2"/>
<rect x="518" width="223" height="254" rx="10" fill="#74FEE5" fill-opacity="0.2"/>
<path d="M601.77 125.031C572.996 67.8329 562.53 31.8908 519.138 115.787C518.411 117.193 518 118.825 518 120.408V244C518 249.523 522.477 254 528 254H731C736.523 254 741 249.523 741 244V81.4204C741 78.9552 740.089 76.577 738.443 74.7421L705.233 37.7275C701.124 33.148 693.894 33.3298 690.02 38.1099L618.207 126.731C613.699 132.295 604.988 131.428 601.77 125.031Z" fill="#4ECB71" fill-opacity="0.19"/>
<circle cx="605" cy="43" r="24" fill="#FFB800" fill-opacity="0.07"/>
<circle cx="605" cy="43" r="12" fill="#FFB800" fill-opacity="0.2"/>
<rect x="518" y="291" width="223" height="254" rx="10" fill="#74FEE5" fill-opacity="0.2"/>
<path d="M601.77 416.031C572.996 358.833 562.53 322.891 519.138 406.787C518.411 408.193 518 409.825 518 411.408V535C518 540.523 522.477 545 528 545H731C736.523 545 741 540.523 741 535V372.42C741 369.955 740.089 367.577 738.443 365.742L705.233 328.727C701.124 324.148 693.894 324.33 690.02 329.11L618.207 417.731C613.699 423.295 604.988 422.428 601.77 416.031Z" fill="#4ECB71" fill-opacity="0.19"/>
<circle cx="608" cy="344" r="24" fill="#FFB800" fill-opacity="0.07"/>
<circle cx="608" cy="344" r="12" fill="#FFB800" fill-opacity="0.2"/>
<rect x="518" y="582" width="223" height="254" rx="10" fill="#74FEE5" fill-opacity="0.2"/>
<path d="M601.77 707.031C572.996 649.833 562.53 613.891 519.138 697.787C518.411 699.193 518 700.825 518 702.408V826C518 831.523 522.477 836 528 836H731C736.523 836 741 831.523 741 826V663.42C741 660.955 740.089 658.577 738.443 656.742L705.233 619.727C701.124 615.148 693.894 615.33 690.02 620.11L618.207 708.731C613.699 714.295 604.988 713.428 601.77 707.031Z" fill="#4ECB71" fill-opacity="0.19"/>
<circle cx="611" cy="645" r="24" fill="#FFB800" fill-opacity="0.07"/>
<circle cx="611" cy="645" r="12" fill="#FFB800" fill-opacity="0.2"/>
<rect x="774" width="223" height="254" rx="10" fill="#74FEE5" fill-opacity="0.2"/>
<path d="M857.77 125.031C828.996 67.8329 818.53 31.8908 775.138 115.787C774.411 117.193 774 118.825 774 120.408V244C774 249.523 778.477 254 784 254H987C992.523 254 997 249.523 997 244V81.4204C997 78.9552 996.089 76.577 994.443 74.7421L961.233 37.7275C957.124 33.148 949.894 33.3298 946.02 38.1099L874.207 126.731C869.699 132.295 860.988 131.428 857.77 125.031Z" fill="#4ECB71" fill-opacity="0.19"/>
<circle cx="862" cy="43" r="24" fill="#FFB800" fill-opacity="0.07"/>
<circle cx="862" cy="43" r="12" fill="#FFB800" fill-opacity="0.2"/>
<rect x="774" y="291" width="223" height="254" rx="10" fill="#74FEE5" fill-opacity="0.2"/>
<path d="M857.77 416.031C828.996 358.833 818.53 322.891 775.138 406.787C774.411 408.193 774 409.825 774 411.408V535C774 540.523 778.477 545 784 545H987C992.523 545 997 540.523 997 535V372.42C997 369.955 996.089 367.577 994.443 365.742L961.233 328.727C957.124 324.148 949.894 324.33 946.02 329.11L874.207 417.731C869.699 423.295 860.988 422.428 857.77 416.031Z" fill="#4ECB71" fill-opacity="0.19"/>
<circle cx="865" cy="344" r="24" fill="#FFB800" fill-opacity="0.07"/>
<circle cx="865" cy="344" r="12" fill="#FFB800" fill-opacity="0.2"/>
<rect x="774" y="582" width="223" height="254" rx="10" fill="#74FEE5" fill-opacity="0.2"/>
<path d="M857.77 707.031C828.996 649.833 818.53 613.891 775.138 697.787C774.411 699.193 774 700.825 774 702.408V826C774 831.523 778.477 836 784 836H987C992.523 836 997 831.523 997 826V663.42C997 660.955 996.089 658.577 994.443 656.742L961.233 619.727C957.124 615.148 949.894 615.33 946.02 620.11L874.207 708.731C869.699 714.295 860.988 713.428 857.77 707.031Z" fill="#4ECB71" fill-opacity="0.19"/>
<circle cx="868" cy="645" r="24" fill="#FFB800" fill-opacity="0.07"/>
<circle cx="868" cy="645" r="12" fill="#FFB800" fill-opacity="0.2"/>
<rect x="1030" width="223" height="254" rx="10" fill="#74FEE5" fill-opacity="0.2"/>
<path d="M1113.77 125.031C1085 67.8329 1074.53 31.8908 1031.14 115.787C1030.41 117.193 1030 118.825 1030 120.408V244C1030 249.523 1034.48 254 1040 254H1243C1248.52 254 1253 249.523 1253 244V81.4204C1253 78.9552 1252.09 76.577 1250.44 74.7421L1217.23 37.7275C1213.12 33.148 1205.89 33.3298 1202.02 38.1099L1130.21 126.731C1125.7 132.295 1116.99 131.428 1113.77 125.031Z" fill="#4ECB71" fill-opacity="0.19"/>
<circle cx="1119" cy="43" r="24" fill="#FFB800" fill-opacity="0.07"/>
<circle cx="1119" cy="43" r="12" fill="#FFB800" fill-opacity="0.2"/>
<rect x="1030" y="291" width="223" height="254" rx="10" fill="#74FEE5" fill-opacity="0.2"/>
<path d="M1113.77 416.031C1085 358.833 1074.53 322.891 1031.14 406.787C1030.41 408.193 1030 409.825 1030 411.408V535C1030 540.523 1034.48 545 1040 545H1243C1248.52 545 1253 540.523 1253 535V372.42C1253 369.955 1252.09 367.577 1250.44 365.742L1217.23 328.727C1213.12 324.148 1205.89 324.33 1202.02 329.11L1130.21 417.731C1125.7 423.295 1116.99 422.428 1113.77 416.031Z" fill="#4ECB71" fill-opacity="0.19"/>
<circle cx="1122" cy="344" r="24" fill="#FFB800" fill-opacity="0.07"/>
<circle cx="1122" cy="344" r="12" fill="#FFB800" fill-opacity="0.2"/>
<rect x="1030" y="582" width="223" height="254" rx="10" fill="#74FEE5" fill-opacity="0.2"/>
<path d="M1113.77 707.031C1085 649.833 1074.53 613.891 1031.14 697.787C1030.41 699.193 1030 700.825 1030 702.408V826C1030 831.523 1034.48 836 1040 836H1243C1248.52 836 1253 831.523 1253 826V663.42C1253 660.955 1252.09 658.577 1250.44 656.742L1217.23 619.727C1213.12 615.148 1205.89 615.33 1202.02 620.11L1130.21 708.731C1125.7 714.295 1116.99 713.428 1113.77 707.031Z" fill="#4ECB71" fill-opacity="0.19"/>
<circle cx="1125" cy="645" r="24" fill="#FFB800" fill-opacity="0.07"/>
<circle cx="1125" cy="645" r="12" fill="#FFB800" fill-opacity="0.2"/>
</svg>
